<svg xmlns="http://www.w3.org/2000/svg" viewBox="0 0 100 100" width="100" height="100">
  <!-- Background circle -->
  <circle cx="50" cy="50" r="48" fill="#f5f5f5" stroke="#e53e3e" stroke-width="2" />
  
  <!-- Fire icon -->
  <path d="M65.5,40c0,0-7.5-10-15.5-10s-15.5,10-15.5,10c-7.5,0-14.5,5-14.5,15s7,25,30,25s30-15,30-25S73,40,65.5,40z" 
        fill="#e53e3e" />
  
  <!-- Inner fire -->
  <path d="M62,45c0,0-6-8-12-8s-12,8-12,8c-6,0-12,5-12,15s6,15,24,15s24-5,24-15S68,45,62,45z" 
        fill="#f56565" />
  
  <!-- Fire core -->
  <path d="M58,50c0,0-5-6-8-6s-8,6-8,6c-4,0-7,3-7,9s3,12,15,12s15-6,15-12S62,50,58,50z" 
        fill="#fc8181" />
  
  <!-- Flame highlight -->
  <path d="M52,55c0,0-2-3-2-4s-2,4-2,4c-2,0-4,1-4,5s1,7,6,7s6-3,6-7S54,55,52,55z" 
        fill="#fff5f5" />
</svg>